<svg xmlns="http://www.w3.org/2000/svg" viewBox="0 0 155.5 67.5"><defs><style>.cls-1{fill:#ffc332;}.cls-1,.cls-10,.cls-11,.cls-12,.cls-13,.cls-14,.cls-15,.cls-16,.cls-17,.cls-18,.cls-2,.cls-3,.cls-4,.cls-5,.cls-6,.cls-7,.cls-8,.cls-9{stroke:#1927ff;}.cls-1,.cls-10,.cls-11,.cls-12,.cls-13,.cls-14,.cls-15,.cls-16,.cls-17,.cls-18,.cls-2,.cls-20,.cls-3,.cls-4,.cls-5,.cls-6,.cls-7,.cls-8,.cls-9{stroke-miterlimit:10;}.cls-1,.cls-10,.cls-11,.cls-12,.cls-13,.cls-14,.cls-15,.cls-16,.cls-17,.cls-2,.cls-3,.cls-4,.cls-5,.cls-6,.cls-7,.cls-8,.cls-9{stroke-width:2px;}.cls-2{fill:#ffc53c;}.cls-3{fill:#ffc847;}.cls-4{fill:#fecb51;}.cls-5{fill:#fecd5b;}.cls-6{fill:#fecf65;}.cls-7{fill:#fed270;}.cls-8{fill:#fdd47a;}.cls-9{fill:#fdd784;}.cls-10{fill:#fdd98e;}.cls-11{fill:#fcdc99;}.cls-12{fill:#fcdfa3;}.cls-13{fill:#fce1ad;}.cls-14{fill:#fce3b7;}.cls-15{fill:#fbe6c2;}.cls-16{fill:#fbe8cc;}.cls-17{fill:#fbebd6;}.cls-18,.cls-19,.cls-20{fill:#1927ff;}.cls-18{stroke-width:0.5px;}.cls-20{stroke:#fbebd6;stroke-linecap:round;}</style></defs><title>Asset 7</title><g id="Layer_2" data-name="Layer 2"><g id="Layer_1-2" data-name="Layer 1"><rect class="cls-1" x="12.5" y="12.5" width="142" height="54" rx="17"/><rect class="cls-2" x="11.78" y="11.78" width="142" height="54" rx="17"/><rect class="cls-3" x="11.06" y="11.06" width="142" height="54" rx="17"/><rect class="cls-4" x="10.34" y="10.34" width="142" height="54" rx="17"/><rect class="cls-5" x="9.62" y="9.62" width="142" height="54" rx="17"/><rect class="cls-6" x="8.91" y="8.91" width="142" height="54" rx="17"/><rect class="cls-7" x="8.19" y="8.19" width="142" height="54" rx="17"/><rect class="cls-8" x="7.47" y="7.47" width="142" height="54" rx="17"/><rect class="cls-9" x="6.75" y="6.75" width="142" height="54" rx="17"/><rect class="cls-10" x="6.03" y="6.03" width="142" height="54" rx="17"/><rect class="cls-11" x="5.31" y="5.31" width="142" height="54" rx="17"/><rect class="cls-12" x="4.59" y="4.59" width="142" height="54" rx="17"/><rect class="cls-13" x="3.88" y="3.88" width="142" height="54" rx="17"/><rect class="cls-14" x="3.16" y="3.16" width="142" height="54" rx="17"/><rect class="cls-15" x="2.44" y="2.44" width="142" height="54" rx="17"/><rect class="cls-16" x="1.72" y="1.72" width="142" height="54" rx="17"/><rect class="cls-17" x="1" y="1" width="142" height="54" rx="17"/><path class="cls-18" d="M63.83,11.43v6.38a.51.51,0,0,0,.5.5H66.2a.5.5,0,0,1,.5.5v3.51a.5.5,0,0,1-.5.5H64.33a.5.5,0,0,0-.5.5V33.4A1.43,1.43,0,0,0,65.47,35a4.58,4.58,0,0,0,.91-.09.47.47,0,0,1,.61.48v3a.53.53,0,0,1-.36.48,9.5,9.5,0,0,1-2.88.38c-3.12,0-4.43-1.89-4.43-3.86v-12a.5.5,0,0,0-.5-.5H57.36a.51.51,0,0,1-.5-.5V18.81a.5.5,0,0,1,.5-.5h1.46a.5.5,0,0,0,.5-.5V11.43a.5.5,0,0,1,.5-.5h3.51A.5.5,0,0,1,63.83,11.43Z"/><path class="cls-18" d="M81.72,38.81a.5.5,0,0,1-.5-.5v-13a3.33,3.33,0,0,0-3.57-3.53c-3.32,0-4.1,3.53-4.1,6V38.31a.51.51,0,0,1-.5.5H69.54a.5.5,0,0,1-.5-.5V11.43a.5.5,0,0,1,.5-.5h3.34a.5.5,0,0,1,.5.5v7.46c0,.51.36.71.78.43a9,9,0,0,1,5.13-1.42c3.57,0,6.6,1.88,6.6,6.39v14a.51.51,0,0,1-.5.5Z"/><path class="cls-18" d="M97.49,17.9c5.61,0,9.14,3.91,9.57,11.19a.5.5,0,0,1-.51.53H93.11a.49.49,0,0,0-.5.57c.53,3.16,2.57,4.52,5.17,4.52a4.48,4.48,0,0,0,4.42-2.6.56.56,0,0,1,.45-.27h3.61a.49.49,0,0,1,.5.6,8.67,8.67,0,0,1-8.94,6.78c-6,0-9.84-4.92-9.84-10.5S91.75,17.9,97.49,17.9Zm-3.94,7.62h8.11a.48.48,0,0,0,.49-.58c-.47-2.14-2.08-3.35-4.49-3.35a4.67,4.67,0,0,0-4.58,3.24A.47.47,0,0,0,93.55,25.52Z"/><path class="cls-18" d="M128.2,34.54a6.83,6.83,0,0,0,1.27-.13.48.48,0,0,1,.58.48v3.49a.51.51,0,0,1-.43.49,17.79,17.79,0,0,1-2.49.18c-2.25,0-3.44-.43-4.34-1.68a.49.49,0,0,0-.7-.13,9.6,9.6,0,0,1-6,2c-4.6,0-8-3.2-8-6.81,0-4.67,3.94-6.56,9.59-6.56h3.94v-1c0-2.22-1.72-3.69-4.18-3.69s-3.67,1.1-3.84,3.22a.51.51,0,0,1-.48.47h-4a.49.49,0,0,1-.49-.52c.29-4.11,4.12-6.45,9-6.45,4.63,0,8.57,2.09,8.57,6.52v8.36C126.11,34,126.93,34.54,128.2,34.54Zm-11.44,1.4a4.76,4.76,0,0,0,4.84-4.51V29.85a.5.5,0,0,0-.48-.49c-6.71-.24-8,1.38-8,3.54C113.15,34.54,114.55,35.94,116.76,35.94Z"/><path class="cls-19" d="M33.65,20C27,17.65,19.05,21.1,15.9,27.3c-1.58,3.1-2.16,7.27.13,10.2,3,3.87,8,1.71,10.78-1.18A27,27,0,0,0,33.67,24l-4,.52c.55,1.12.21,2.51,0,3.66a15.59,15.59,0,0,0-.54,4.7c.27,2.76,2.28,5.46,5.25,5.57,3.26.13,4.53-2.88,5.53-5.43l3.66-9.36L39.28,23l.54,12.89c.1,2.34,3.78,3.1,4.27.58a23.73,23.73,0,0,1,8.85-14.36l-3.27-1.88.09,9.8c0,1.58,0,3.16,0,4.73a5.35,5.35,0,0,0,1.28,3.63c2.26,2.29,5.3.6,6.89-1.51a90.72,90.72,0,0,0,5-8.38c1.43-2.41-2.33-4.6-3.76-2.19l-3.72,6.29A14,14,0,0,1,53.85,35l-.29.18a.61.61,0,0,1,.6.13c.14.27.15.22,0-.14a2.83,2.83,0,0,1,0-.41c-.2-2.35,0-4.81-.06-7.18L54,20.27c0-1.5-1.9-2.9-3.27-1.87a28,28,0,0,0-10.85,17l4.27.57L43.63,23a2.18,2.18,0,0,0-4.27-.58L36.57,29.6c-.43,1.08-.81,2.19-1.28,3.26-.14.33-.41,1.19-.85,1.2-.62,0-.95-1.09-1-1.51a9.94,9.94,0,0,1,.41-3.25c.52-2.42.72-4.73-.4-7-.83-1.69-3.54-1.22-4,.52a22.67,22.67,0,0,1-5.73,10.45c-.83.84-2.69,2.71-4,1.85-.93-.61-1-2.24-.84-3.2.78-6.08,8.15-9.65,13.6-7.74,2.65.93,3.79-3.27,1.16-4.19Z"/><line class="cls-20" x1="136" y1="57.81" x2="141" y2="62.19"/><line class="cls-20" x1="136.1" y1="53.23" x2="146.08" y2="61.99"/><line class="cls-20" x1="140.06" y1="52.34" x2="147.06" y2="58.46"/><line class="cls-20" x1="13.47" y1="55.27" x2="21.97" y2="62.71"/><line class="cls-20" x1="143.25" y1="13.29" x2="152" y2="22.79"/><path class="cls-19" d="M124.59,4.5A14.93,14.93,0,0,1,139.5,19.41V36.59A14.93,14.93,0,0,1,124.59,51.5H19.41A14.93,14.93,0,0,1,4.5,36.59V19.41A14.93,14.93,0,0,1,19.41,4.5H124.59m0-1H19.41A15.91,15.91,0,0,0,3.5,19.41V36.59A15.91,15.91,0,0,0,19.41,52.5H124.59A15.91,15.91,0,0,0,140.5,36.59V19.41A15.91,15.91,0,0,0,124.59,3.5Z"/></g></g></svg>
