<svg xmlns="http://www.w3.org/2000/svg" viewBox="0 0 155.5 67.5"><defs><style>.cls-1{fill:#ffc332;}.cls-1,.cls-10,.cls-11,.cls-12,.cls-13,.cls-14,.cls-15,.cls-16,.cls-17,.cls-2,.cls-3,.cls-4,.cls-5,.cls-6,.cls-7,.cls-8,.cls-9{stroke:#1927ff;stroke-width:2px;}.cls-1,.cls-10,.cls-11,.cls-12,.cls-13,.cls-14,.cls-15,.cls-16,.cls-17,.cls-2,.cls-20,.cls-3,.cls-4,.cls-5,.cls-6,.cls-7,.cls-8,.cls-9{stroke-miterlimit:10;}.cls-2{fill:#ffc53c;}.cls-3{fill:#ffc847;}.cls-4{fill:#fecb51;}.cls-5{fill:#fecd5b;}.cls-6{fill:#fecf65;}.cls-7{fill:#fed270;}.cls-8{fill:#fdd47a;}.cls-9{fill:#fdd784;}.cls-10{fill:#fdd98e;}.cls-11{fill:#fcdc99;}.cls-12{fill:#fcdfa3;}.cls-13{fill:#fce1ad;}.cls-14{fill:#fce3b7;}.cls-15{fill:#fbe6c2;}.cls-16{fill:#fbe8cc;}.cls-17{fill:#fbebd6;}.cls-18{font-size:40px;font-family:Karrik-Regular, Karrik;letter-spacing:-0.04em;}.cls-18,.cls-19,.cls-20{fill:#1927ff;}.cls-20{stroke:#fbebd6;stroke-linecap:round;}</style></defs><title>Asset 5</title><g id="Layer_2" data-name="Layer 2"><g id="Layer_1-2" data-name="Layer 1"><rect class="cls-1" x="12.5" y="12.5" width="142" height="54" rx="17"/><rect class="cls-2" x="11.78" y="11.78" width="142" height="54" rx="17"/><rect class="cls-3" x="11.06" y="11.06" width="142" height="54" rx="17"/><rect class="cls-4" x="10.34" y="10.34" width="142" height="54" rx="17"/><rect class="cls-5" x="9.62" y="9.62" width="142" height="54" rx="17"/><rect class="cls-6" x="8.91" y="8.91" width="142" height="54" rx="17"/><rect class="cls-7" x="8.19" y="8.19" width="142" height="54" rx="17"/><rect class="cls-8" x="7.47" y="7.47" width="142" height="54" rx="17"/><rect class="cls-9" x="6.75" y="6.75" width="142" height="54" rx="17"/><rect class="cls-10" x="6.03" y="6.03" width="142" height="54" rx="17"/><rect class="cls-11" x="5.31" y="5.31" width="142" height="54" rx="17"/><rect class="cls-12" x="4.59" y="4.59" width="142" height="54" rx="17"/><rect class="cls-13" x="3.88" y="3.88" width="142" height="54" rx="17"/><rect class="cls-14" x="3.16" y="3.16" width="142" height="54" rx="17"/><rect class="cls-15" x="2.44" y="2.44" width="142" height="54" rx="17"/><rect class="cls-16" x="1.72" y="1.72" width="142" height="54" rx="17"/><rect class="cls-17" x="1" y="1" width="142" height="54" rx="17"/><text class="cls-18" transform="translate(56.04 38.81)">thea</text><path class="cls-19" d="M33.65,20C27,17.65,19.05,21.1,15.9,27.3c-1.58,3.1-2.16,7.27.13,10.2,3,3.87,8,1.71,10.78-1.18A27,27,0,0,0,33.67,24l-4,.52c.55,1.12.21,2.51,0,3.66a15.59,15.59,0,0,0-.54,4.7c.27,2.76,2.28,5.46,5.25,5.57,3.26.13,4.53-2.88,5.53-5.43l3.66-9.36L39.28,23l.54,12.89c.1,2.34,3.78,3.1,4.27.58a23.73,23.73,0,0,1,8.85-14.36l-3.27-1.88.09,9.8c0,1.58,0,3.16,0,4.73a5.35,5.35,0,0,0,1.28,3.63c2.26,2.29,5.3.6,6.89-1.51a90.72,90.72,0,0,0,5-8.38c1.43-2.41-2.33-4.6-3.76-2.19l-3.72,6.29A14,14,0,0,1,53.85,35l-.29.18a.61.61,0,0,1,.6.13c.14.27.15.22,0-.14a2.83,2.83,0,0,1,0-.41c-.2-2.35,0-4.81-.06-7.18L54,20.27c0-1.5-1.9-2.9-3.27-1.87a28,28,0,0,0-10.85,17l4.27.57L43.63,23a2.18,2.18,0,0,0-4.27-.58L36.57,29.6c-.43,1.08-.81,2.19-1.28,3.26-.14.33-.41,1.19-.85,1.2-.62,0-.95-1.09-1-1.51a9.94,9.94,0,0,1,.41-3.25c.52-2.42.72-4.73-.4-7-.83-1.69-3.54-1.22-4,.52a22.67,22.67,0,0,1-5.73,10.45c-.83.84-2.69,2.71-4,1.85-.93-.61-1-2.24-.84-3.2.78-6.08,8.15-9.65,13.6-7.74,2.65.93,3.79-3.27,1.16-4.19Z"/><line class="cls-20" x1="136" y1="57.81" x2="141" y2="62.19"/><line class="cls-20" x1="136.1" y1="53.23" x2="146.08" y2="61.99"/><line class="cls-20" x1="140.06" y1="52.34" x2="147.06" y2="58.46"/><line class="cls-20" x1="13.47" y1="55.27" x2="21.97" y2="62.71"/><line class="cls-20" x1="143.25" y1="13.29" x2="152" y2="22.79"/><path class="cls-19" d="M124.59,4.5A14.93,14.93,0,0,1,139.5,19.41V36.59A14.93,14.93,0,0,1,124.59,51.5H19.41A14.93,14.93,0,0,1,4.5,36.59V19.41A14.93,14.93,0,0,1,19.41,4.5H124.59m0-1H19.41A15.91,15.91,0,0,0,3.5,19.41V36.59A15.91,15.91,0,0,0,19.41,52.5H124.59A15.91,15.91,0,0,0,140.5,36.59V19.41A15.91,15.91,0,0,0,124.59,3.5Z"/></g></g></svg>